# Aspose.3D Wavefront OBJ Exporter
# Copyright 2004-2021 Aspose Pty Ltd.
# File created: 09/16/2021 14:16:26


#
# object Model
#

v -905.15155792236328124 -1.19633896935736228 493.97230167806924336
v -306.845712661743164 -1.19633896935736228 493.97230167806924336
v -905.15155792236328124 -1.19641212060574164 44.97314114989218576
v -306.845712661743164 -1.19641212060574164 44.97314114989218576
v -905.15155792236328124 14.5394994573340384 44.97313858618677792
v -905.15155792236328124 14.53957260858241792 493.97229911436380688
v -306.845712661743164 14.53957260858241792 493.97229911436380688
v -306.845712661743164 14.5394994573340384 44.97313858618677792
v -306.845712661743164 -1.19633896935736228 493.97230167806924336
v 291.46018028259277344 -1.19633896935736228 493.97230167806924336
v -306.845712661743164 -1.19641212060574164 44.97314114989218576
v 291.46018028259277344 -1.19641212060574164 44.97314114989218576
v -306.845712661743164 14.5394994573340384 44.97313858618677792
v -306.845712661743164 14.53957260858241792 493.97229911436380688
v 291.46018028259277344 14.53957260858241792 493.97229911436380688
v 291.46018028259277344 14.5394994573340384 44.97313858618677792
v 291.46018028259277344 -1.19633896935736228 493.97230167806924336
v 889.76602554321289056 -1.19633896935736228 493.97230167806924336
v 291.46018028259277344 -1.19641212060574164 44.97314114989218576
v 889.76602554321289056 -1.19641212060574164 44.97314114989218576
v 291.46018028259277344 14.5394994573340384 44.97313858618677792
v 291.46018028259277344 14.53957260858241792 493.97229911436380688
v 889.76602554321289056 14.53957260858241792 493.97229911436380688
v 889.76602554321289056 14.5394994573340384 44.97313858618677792
v -905.15155792236328124 -1.19626581810024324 942.9715158504264992
v -306.845712661743164 -1.19626581810024324 942.9715158504264992
v -905.15155792236328124 -1.19633896935736228 493.97230167806924336
v -306.845712661743164 -1.19633896935736228 493.97230167806924336
v -905.15155792236328124 14.53957260858241792 493.97229911436380688
v -905.15155792236328124 14.53964575983953544 942.97151328672111952
v -306.845712661743164 14.53964575983953544 942.97151328672111952
v -306.845712661743164 14.53957260858241792 493.97229911436380688
v -306.845712661743164 -1.19626581810024324 942.9715158504264992
v 291.46018028259277344 -1.19626581810024324 942.9715158504264992
v -306.845712661743164 -1.19633896935736228 493.97230167806924336
v 291.46018028259277344 -1.19633896935736228 493.97230167806924336
v -306.845712661743164 14.53957260858241792 493.97229911436380688
v -306.845712661743164 14.53964575983953544 942.97151328672111952
v 291.46018028259277344 14.53964575983953544 942.97151328672111952
v 291.46018028259277344 14.53957260858241792 493.97229911436380688
v 291.46018028259277344 -1.19626581810024324 942.9715158504264992
v 889.76602554321289056 -1.19626581810024324 942.9715158504264992
v 291.46018028259277344 -1.19633896935736228 493.97230167806924336
v 889.76602554321289056 -1.19633896935736228 493.97230167806924336
v 291.46018028259277344 14.53957260858241792 493.97229911436380688
v 291.46018028259277344 14.53964575983953544 942.97151328672111952
v 889.76602554321289056 14.53964575983953544 942.97151328672111952
v 889.76602554321289056 14.53957260858241792 493.97229911436380688
# 48 vertices

vn 0 -0.99999999999998656 1.6292067939183141E-07
vn 0 -0.99999999999998656 1.6292067939183141E-07
vn 0 -0.99999999999998656 1.6292067939183141E-07
vn 0 -0.99999999999998656 1.6292067939183141E-07
vn 0 0.99999999999998656 -1.6292067939183141E-07
vn 0 0.99999999999998656 -1.6292067939183141E-07
vn 0 0.99999999999998656 -1.6292067939183141E-07
vn 0 0.99999999999998656 -1.6292067939183141E-07
vn 0 -1.6292067939183141E-07 -0.99999999999998656
vn 0 -1.6292067939183141E-07 -0.99999999999998656
vn 0 -1.6292067939183141E-07 -0.99999999999998656
vn 0 -1.6292067939183141E-07 -0.99999999999998656
vn 0 1.6292067939183141E-07 0.99999999999998656
vn 0 1.6292067939183141E-07 0.99999999999998656
vn 0 1.6292067939183141E-07 0.99999999999998656
vn 0 1.6292067939183141E-07 0.99999999999998656
vn 1 0 0
vn 1 0 0
vn 1 0 0
vn 1 0 0
vn -1 0 0
vn -1 0 0
vn -1 0 0
vn -1 0 0
vn 0 -0.99999999999998656 1.6292067939183141E-07
vn 0 -0.99999999999998656 1.6292067939183141E-07
vn 0 -0.99999999999998656 1.6292067939183141E-07
vn 0 -0.99999999999998656 1.6292067939183141E-07
vn 0 0.99999999999998656 -1.6292067939183141E-07
vn 0 0.99999999999998656 -1.6292067939183141E-07
vn 0 0.99999999999998656 -1.6292067939183141E-07
vn 0 0.99999999999998656 -1.6292067939183141E-07
vn 0 -1.6292067939183141E-07 -0.99999999999998656
vn 0 -1.6292067939183141E-07 -0.99999999999998656
vn 0 -1.6292067939183141E-07 -0.99999999999998656
vn 0 -1.6292067939183141E-07 -0.99999999999998656
vn 0 1.6292067939183141E-07 0.99999999999998656
vn 0 1.6292067939183141E-07 0.99999999999998656
vn 0 1.6292067939183141E-07 0.99999999999998656
vn 0 1.6292067939183141E-07 0.99999999999998656
vn 1 0 0
vn 1 0 0
vn 1 0 0
vn 1 0 0
vn -1 0 0
vn -1 0 0
vn -1 0 0
vn -1 0 0
vn 0 -0.99999999999998656 1.6292067939183141E-07
vn 0 -0.99999999999998656 1.6292067939183141E-07
vn 0 -0.99999999999998656 1.6292067939183141E-07
vn 0 -0.99999999999998656 1.6292067939183141E-07
vn 0 0.99999999999998656 -1.6292067939183141E-07
vn 0 0.99999999999998656 -1.6292067939183141E-07
vn 0 0.99999999999998656 -1.6292067939183141E-07
vn 0 0.99999999999998656 -1.6292067939183141E-07
vn 0 -1.6292067939183141E-07 -0.99999999999998656
vn 0 -1.6292067939183141E-07 -0.99999999999998656
vn 0 -1.6292067939183141E-07 -0.99999999999998656
vn 0 -1.6292067939183141E-07 -0.99999999999998656
vn 0 1.6292067939183141E-07 0.99999999999998656
vn 0 1.6292067939183141E-07 0.99999999999998656
vn 0 1.6292067939183141E-07 0.99999999999998656
vn 0 1.6292067939183141E-07 0.99999999999998656
vn 1 0 0
vn 1 0 0
vn 1 0 0
vn 1 0 0
vn -1 0 0
vn -1 0 0
vn -1 0 0
vn -1 0 0
vn 0 -0.99999994039534192 1.629206696218688E-07
vn 0 -0.99999994039534192 1.629206696218688E-07
vn 0 -0.99999994039534192 1.629206696218688E-07
vn 0 -0.99999994039534192 1.629206696218688E-07
vn 0 0.99999994039534192 -1.629206696218688E-07
vn 0 0.99999994039534192 -1.629206696218688E-07
vn 0 0.99999994039534192 -1.629206696218688E-07
vn 0 0.99999994039534192 -1.629206696218688E-07
vn 0 -1.6292067939183141E-07 -0.99999999999998656
vn 0 -1.6292067939183141E-07 -0.99999999999998656
vn 0 -1.6292067939183141E-07 -0.99999999999998656
vn 0 -1.6292067939183141E-07 -0.99999999999998656
vn 0 1.6292067939183141E-07 0.99999999999998656
vn 0 1.6292067939183141E-07 0.99999999999998656
vn 0 1.6292067939183141E-07 0.99999999999998656
vn 0 1.6292067939183141E-07 0.99999999999998656
vn 1 0 0
vn 1 0 0
vn 1 0 0
vn 1 0 0
vn -1 0 0
vn -1 0 0
vn -1 0 0
vn -1 0 0
vn 0 -0.99999999999998656 1.6292067939183141E-07
vn 0 -0.99999999999998656 1.6292067939183141E-07
vn 0 -0.99999999999998656 1.6292067939183141E-07
vn 0 -0.99999999999998656 1.6292067939183141E-07
vn 0 0.99999999999998656 -1.6292067939183141E-07
vn 0 0.99999999999998656 -1.6292067939183141E-07
vn 0 0.99999999999998656 -1.6292067939183141E-07
vn 0 0.99999999999998656 -1.6292067939183141E-07
vn 0 -1.6292067939183141E-07 -0.99999999999998656
vn 0 -1.6292067939183141E-07 -0.99999999999998656
vn 0 -1.6292067939183141E-07 -0.99999999999998656
vn 0 -1.6292067939183141E-07 -0.99999999999998656
vn 0 1.6292067939183141E-07 0.99999999999998656
vn 0 1.6292067939183141E-07 0.99999999999998656
vn 0 1.6292067939183141E-07 0.99999999999998656
vn 0 1.6292067939183141E-07 0.99999999999998656
vn 1 0 0
vn 1 0 0
vn 1 0 0
vn 1 0 0
vn -1 0 0
vn -1 0 0
vn -1 0 0
vn -1 0 0
vn 0 -0.99999994039534192 1.629206696218688E-07
vn 0 -0.99999994039534192 1.629206696218688E-07
vn 0 -0.99999994039534192 1.629206696218688E-07
vn 0 -0.99999994039534192 1.629206696218688E-07
vn 0 0.99999994039534192 -1.629206696218688E-07
vn 0 0.99999994039534192 -1.629206696218688E-07
vn 0 0.99999994039534192 -1.629206696218688E-07
vn 0 0.99999994039534192 -1.629206696218688E-07
vn 0 -1.6292067939183141E-07 -0.99999999999998656
vn 0 -1.6292067939183141E-07 -0.99999999999998656
vn 0 -1.6292067939183141E-07 -0.99999999999998656
vn 0 -1.6292067939183141E-07 -0.99999999999998656
vn 0 1.6292067939183141E-07 0.99999999999998656
vn 0 1.6292067939183141E-07 0.99999999999998656
vn 0 1.6292067939183141E-07 0.99999999999998656
vn 0 1.6292067939183141E-07 0.99999999999998656
vn 1 0 0
vn 1 0 0
vn 1 0 0
vn 1 0 0
vn -1 0 0
vn -1 0 0
vn -1 0 0
vn -1 0 0
# 144 vertex normals

vt 0.49199217557907104 0.88817059993743904 0
vt 0.54995059967041016 0.12700876593589782 0
vt 0.54995012283325192 0.85223650932312016 0
vt 0.5356445908546448 0.85223650932312016 0
vt 0.53564453125 0.12700873613357544 0
vt 0.4639368653297424 0.1189505085349083 0
vt 0.4434204697608948 0.11895056813955308 0
vt 0.14876796305179596 0.11369737982749938 0
vt 0.14876803755760192 0.88720643520355232 0
vt 0.44342094659805296 0.899524450302124 0
vt 0.78027045726776128 0.78073942661285408 0
vt 0.78027045726776128 0.219260573387146 0
vt 0.21912887692451476 0.78073942661285408 0
vt 0.99929946660995488 9.994998254114762E-05 0
vt 0.21912887692451476 0.219260573387146 0
vt 9.994998254114762E-05 0.00010002121416619048 0
vt 0.99929946660995488 0.99990004301071168 0
vt 0.00010002121416619048 0.99990004301071168 0
vt 0.47688251733779904 0.88817059993743904 0
vt 0.47688290476799008 0.12220022827386856 0
vt 0.46393841505050656 0.899524450302124 0
vt 0.49199217557907104 0.12220022827386856 0
vt 0.12843634188175202 0.88720643520355232 0
vt 0.12843626737594604 0.11369737982749938 0
# 24 texture coords

g Model
s 1
f 1/13/1 3/15/2 4/12/3 2/11/4
f 6/16/5 7/14/6 8/17/7 5/18/8
f 4/19/9 3/20/10 5/22/11 8/1/12
f 1/2/13 2/3/14 7/4/15 6/5/16
f 2/6/17 4/21/18 8/10/19 7/7/20
f 3/8/21 1/9/22 6/23/23 5/24/24
f 9/13/25 11/15/26 12/12/27 10/11/28
f 14/16/29 15/14/30 16/17/31 13/18/32
f 12/19/33 11/20/34 13/22/35 16/1/36
f 9/2/37 10/3/38 15/4/39 14/5/40
f 10/6/41 12/21/42 16/10/43 15/7/44
f 11/8/45 9/9/46 14/23/47 13/24/48
f 17/13/49 19/15/50 20/12/51 18/11/52
f 22/16/53 23/14/54 24/17/55 21/18/56
f 20/19/57 19/20/58 21/22/59 24/1/60
f 17/2/61 18/3/62 23/4/63 22/5/64
f 18/6/65 20/21/66 24/10/67 23/7/68
f 19/8/69 17/9/70 22/23/71 21/24/72
f 25/13/73 27/15/74 28/12/75 26/11/76
f 30/16/77 31/14/78 32/17/79 29/18/80
f 28/19/81 27/20/82 29/22/83 32/1/84
f 25/2/85 26/3/86 31/4/87 30/5/88
f 26/6/89 28/21/90 32/10/91 31/7/92
f 27/8/93 25/9/94 30/23/95 29/24/96
f 33/13/97 35/15/98 36/12/99 34/11/100
f 38/16/101 39/14/102 40/17/103 37/18/104
f 36/19/105 35/20/106 37/22/107 40/1/108
f 33/2/109 34/3/110 39/4/111 38/5/112
f 34/6/113 36/21/114 40/10/115 39/7/116
f 35/8/117 33/9/118 38/23/119 37/24/120
f 41/13/121 43/15/122 44/12/123 42/11/124
f 46/16/125 47/14/126 48/17/127 45/18/128
f 44/19/129 43/20/130 45/22/131 48/1/132
f 41/2/133 42/3/134 47/4/135 46/5/136
f 42/6/137 44/21/138 48/10/139 47/7/140
f 43/8/141 41/9/142 46/23/143 45/24/144
#36 polygons



